Patient4_TMGait_0pt5_01_right_21_EMG.mot
version=1
nRows=23
nColumns=33
inDegrees=no
endheader
time	1LAddLong	2LGlutMax	3LGlutMed	4LIliopsoas	5LSemiMemb	6LBicFemLong	7LRecFem	8LVastMed	9LVastLat	10LGasMed	11LTibAnt	12lTibPost	13LPeroneusLong	14LSol	15LExtDigLong	16LFlexDigLong	17RAddLong	18RGlutMax	19RGlutMed	20RIliopsoas	21RSemiMemb	22RBicFemLong	23RRecFem	24RVastMed	25RVastLat	26RGasMed	27RTibAnt	28RTibPost	29RPeroneusLong	30RSol	31RExtDigLong	32RFlexDigLong
27.47	0.0177	-0.04364	-0.15686	-0.015259	0.12878	0.060577	0.14633	0.009003	-0.1149	0.30136	-0.024719	-0.008698	-0.0383	0.13596	0.000916	-0.002747	0.10193	-0.64087	-0.1651	0.007019	-0.018768	-0.050659	-0.14771	-0.18173	-0.046997	-0.012054	-0.01297	-0.000763	-0.33493	-0.001526	-0.003662	-0.005951
27.471	0.015106	-0.012054	-0.086823	-0.019989	0.10178	0.090179	0.085449	0.01236	-0.078125	0.042572	-0.019836	-0.009766	0.018768	0.11154	0.004578	-0.004272	0.046234	-0.62286	-0.077972	0.078583	-0.02121	-0.044556	-0.58624	-0.18524	-0.042572	-0.012512	0.1738	-0.003357	-0.007172	-0.062256	0.001831	-0.003052
27.472	0.015869	0.016022	0.029297	-0.007019	0.055847	0.20599	0.097046	0.001373	-0.037384	-0.0914	-0.011139	-0.009155	0.078125	0.076447	0.014191	-0.000153	-0.001526	-0.57419	-0.065765	0.088348	-0.018311	-0.03006	-0.35721	-0.18509	-0.018158	-0.011902	0.32623	-0.001831	0.37643	-0.092773	0.004578	-0.006561
27.473	0.017853	0.045624	0.078888	0.005798	0.009003	0.20218	0.18494	-0.001984	-0.026855	-0.44617	-0.012665	-0.004883	0.072174	0.065918	0.007935	-0.003052	-0.036011	-0.62683	0.031738	0.042114	-0.020599	-0.001678	0.090179	-0.19058	-0.006714	-0.012665	0.29526	-0.003815	0.18402	-0.099792	0.001678	-0.009155
27.474	0.004272	0.026093	-0.021973	0.008087	-0.013733	0.1741	0.23377	-0.015259	-0.032959	-0.4451	-0.004578	-0.006256	0.055542	0.032349	0.018005	-0.001373	-0.046844	-0.53009	0.077972	0.023956	-0.006256	0.001831	0.57281	-0.16815	0.000916	-0.014954	0.18875	-0.00061	0.057068	-0.060272	0.006561	-0.005951
27.475	0.048828	0.00885	-0.042114	0.006256	-0.007019	0.12146	0.21774	-0.010834	-0.04303	-0.19501	0.009308	0.00412	0.057373	0.072937	0.02594	-0.005798	-0.030365	-0.55695	0.31265	0.13916	-0.006714	-0.005188	1.5099	-0.091248	0.0177	-0.014954	0.14328	-0.001221	0.055237	-0.036621	0.001678	-0.003967
27.476	0.024719	-0.028381	0.031738	0.010071	-0.006561	0.099182	0.14053	0.003662	-0.018158	-0.17487	0.017395	0.004272	0.27847	0.13596	0.034332	-0.013885	-0.015717	-0.53284	0.22842	0.18906	-0.011902	0.00473	2.786	-0.082245	0.018768	-0.013275	-0.71777	-0.000153	0.11765	0.021973	0.001984	-0.00061
27.477	-0.00885	-0.025024	-0.048218	0.002289	-0.004578	0.11826	0.079651	0.013428	0.050201	-0.16022	0.006561	0.00824	0.81375	0.23789	0.04837	-0.018311	-0.0354	-0.53421	0.13031	0.15564	-0.000763	0.016174	3.477	-0.087891	0.009613	-0.014954	-0.65155	-0.002594	-0.066528	0.050049	-0.000305	0.001526
27.478	0.006561	0.00061	-0.12375	0.012054	-0.012817	0.084381	0.034332	0.013885	0.12283	-0.17303	-0.002747	0.005951	0.5275	0.23529	0.052795	-0.005798	-0.035095	-0.52185	0.16235	0.094299	0.018616	0.039063	3.6823	-0.084076	0.021667	-0.015869	-0.20615	-0.001373	-0.21286	0.024719	0.007935	-0.007324
27.479	0.00885	-0.033417	-0.052948	0.009308	-0.014343	0.080109	0.033417	0.007324	0.14801	-0.1001	0.012512	0.00885	-0.16037	0.13184	0.017548	-0.005951	-0.019836	-0.49545	0.20172	0.029755	0.017395	0.06012	3.282	-0.077667	0.059052	-0.006104	-0.12512	-0.002289	-0.12558	0.009308	-0.00061	0
27.48	-0.007935	-0.013885	-0.00885	0.011749	-0.031738	0.11505	0.067902	0.016937	0.13596	-0.046844	-0.000916	0.009003	-0.68314	-0.046844	-0.050354	0.000153	0.034943	-0.49179	0.15884	-0.073853	0.026093	0.062256	2.4481	-0.035706	0.05722	-0.011597	-0.045624	0.000153	0.12558	0.00351	-0.000458	0.005188
27.481	-0.005493	-0.039673	0.021973	0.007782	-0.070953	0.14435	0.080414	0.007629	-0.013428	-0.064545	-0.003967	0.001678	-0.32593	-0.097809	-0.10391	0.009766	0.042419	-0.48675	0.10452	-0.16678	0.023804	0.051575	1.8193	-0.040436	0.079803	-0.015564	0.15564	0.002899	0.26123	-0.018463	0.000916	-0.002899
27.482	-0.012817	-0.043945	0.057678	0.026093	-0.10666	0.14603	0.070343	0.015411	-0.21469	-0.19577	0.016327	-0.003967	-0.077515	-0.020142	-0.019226	0.000916	0.024719	-0.42557	0.097351	-0.10422	0.026855	0.057068	1.1409	-0.09964	0.083923	-0.016479	0.13138	0.00061	0.043488	-0.036316	0.003357	-0.002594
27.483	-0.002899	-0.02182	0.011902	0.028229	-0.065613	0.13931	0.072937	-0.004425	-0.11459	-0.17364	-0.023193	-0.002899	-0.3418	0.027771	0.004425	0.008392	0.017853	-0.41901	0.059357	0.042114	0.019989	0.025482	0.40222	-0.023193	0.076752	-0.021057	0.19318	-0.002136	-0.60135	-0.013275	-0.000458	-0.002899
27.484	0.005493	-0.015106	0.10361	0.002441	-0.002441	0.13382	0.15198	-0.007629	-0.006714	-0.075531	-0.040131	-0.006104	-0.13825	0.026855	-0.024414	0.006866	-0.016174	-0.39414	0.12802	0.14328	0.018463	0.018463	-0.39017	-0.019226	0.076752	-0.02594	0.18097	-0.00351	-0.22385	0.020294	0.000916	0.005341
27.485	0.010529	-0.081177	0.033264	0.012207	0.073242	-0.053406	0.19302	-0.00885	0.040283	-0.045013	-0.068512	-0.008087	0.014038	0.066833	-0.023804	0.007477	-0.032196	-0.41611	0.12528	0.1828	0.000153	-0.012207	-1.1649	0.010071	0.053711	-0.014954	-0.085602	-0.001068	0.032806	0.036621	-0.00061	-0.008698
27.486	0.001068	-0.074463	-0.017853	0.000763	0.077667	-0.098419	0.20721	-0.002441	0.038147	-0.049896	-0.055084	0	0.1944	0.027008	-0.05127	0.028229	-0.042572	-0.38208	0.096436	0.088501	-0.012054	-0.010986	-1.9829	-0.057678	0.02121	-0.015259	-0.27634	-0.001984	0.065765	0.045471	-0.00473	0.00061
27.487	0.004883	-0.078888	-0.032501	0.001526	0.030518	-0.074615	0.12436	0.006561	0.020142	-0.053558	-0.030365	0.00946	0.56091	0.019531	-0.046997	0.00946	-0.047302	-0.36926	0.44159	-0.011597	-0.003967	-0.018463	-2.9694	-0.040131	-0.019379	-0.019989	-0.19104	-0.00351	0.010529	0.026398	0.002441	-0.00824
27.488	0.012054	-0.080109	-0.027924	-0.013428	-0.011902	-0.072632	0.080109	-0.003967	0.031586	-0.050049	0.085907	-0.003357	0.16464	0.037537	-0.020905	0.011292	-0.050201	-0.34622	0.29327	-0.00885	-0.00473	-0.005341	-3.8628	-0.042114	-0.026703	-0.021973	0.003662	-0.002289	-0.016022	-0.020752	0.000916	-0.003204
27.489	0.004883	-0.041351	0.015411	0.006561	-0.027008	-0.12833	0.09552	0.00061	0.017853	-0.047913	0.13504	0.001373	-0.07431	-0.007629	-0.021667	0.002594	-0.028229	-0.33829	0.086212	-0.033417	-0.014191	-0.009918	-4.9295	-0.058289	-0.032043	-0.024567	0.028992	-0.001678	0.014648	0.001221	0.002136	-0.008087
27.49	0.007477	-0.067291	-0.018158	0.015106	-0.006714	0.099792	0.10864	0.00061	0.015411	-0.032349	0.076447	0.001831	-0.23315	0.041809	0.077209	0.001373	-0.001526	-0.32898	-0.070953	-0.0914	-0.010986	-0.012512	-5	-0.10986	-0.067139	-0.028992	0.014191	-0.003204	0.011597	-0.015106	0.009003	-0.023651
27.491	0.013275	-0.039215	-0.034027	0.007172	0.005035	-0.022888	0.11749	-0.006866	0.032806	-0.011444	0.041809	-0.002136	-0.21103	0.041504	0.11993	0.000153	0.01709	-0.32471	-0.1268	-0.086823	-0.0177	-0.003662	-5	-0.08667	-0.026398	-0.038452	0.020905	-0.00351	0.10468	-0.025024	-0.028687	-0.012054
27.492	0.007782	-0.009918	-0.041809	0.009766	0.028381	-0.074005	0.12512	-0.002136	0.028381	-0.006409	0.028687	-0.00351	0.32105	-0.010223	0.061798	-0.001831	-0.008087	-0.31265	0.28885	-0.12466	-0.013275	-0.010071	-4.6948	-0.015717	-0.024567	-0.046234	0.13855	-0.003357	0.14191	-0.033875	-0.045471	0.004272
